<svg width="62" height="57" xmlns="http://www.w3.org/2000/svg">
  <g fill="none" fill-rule="evenodd">
    <path d="M45.409 16.876c-9.45-3.127-15.875-4.647-19.276-4.562-4.509.114-4.874.744-8.662 2.587-4.398 2.139-9.146-2.946-11.317-2.587-1.21.2-2.75-.214-4.618-1.243 1.332 2.391 1.332 4.326 0 5.805-1.333 1.48-.178 3.09 3.464 4.833-.455 5.309.33 8.786 2.354 10.432 1.538 1.251 6.576 2.595 7.5 6.095.195.737-.812 2.298-3.021 4.684 7.112-.678 11.879-1.366 14.3-2.066 2.847-.823 5.613-4.672 8.297-11.545-2.784-4.964-2.308-8.95 1.429-11.96 1.292-1.04 4.475-1.197 9.55-.473z" stroke="#494949" stroke-width=".7" fill="#F5CE24"/>
    <path d="M55.14 3.58L56.26 2.47c1.64-1.415 3.177-1.415 4.61 0 1.435 1.415 1.502 2.863.202 4.344L46.265 21.525a4.01 4.01 0 0 0-.32 1.318c-.096 1.322-.121 4.93-.077 10.825l5.298 17.05c1.019 2.938.39 4.915-1.885 5.932-2.275 1.016-4.123-.291-5.543-3.923L38.485 38.74l-5.352 15.505c-.971 2.202-2.916 3.004-5.833 2.406-2.918-.599-2.918-5.004 0-13.214l3.957-10.702V29.61l-1.768 1.35c-.48.373-.83.615-1.05.725-.573.287-1.089.342-2.136-.726-1.652-1.683-3.022-4.161-4.108-7.434-.769-1.562-.526-3.02.728-4.376.735-.794 3.807-4.613 6.838-5.383 1.669-.424 4.284-.174 7.025-.174 1.434 0 4.04-.238 6.456-1.437 2.191-1.088 6.16-3.952 11.905-8.591l-.008.017zm-17.178 9.182c-3.512 0-6.358-2.857-6.358-6.381S34.45 0 37.962 0c3.51 0 6.357 2.857 6.357 6.381s-2.846 6.381-6.357 6.381zm-7.502 9.499l-.767.857.999 2.373c-.155-1.223-.232-2.013-.232-2.373v-.857z" fill="#494949"/>
    <path d="M35.356 8.335c2.543.611 4.527.396 5.954-.645 0 0-.686 2.392-2.977 2.392-1.527 0-2.52-.582-2.977-1.747z" fill="#F7F7F7"/>
    <g transform="translate(33.954 17.593)">
      <ellipse stroke="#494949" stroke-width=".784" fill="#F7F7F7" cx="4.557" cy="4.574" rx="4.557" ry="4.574"/>
      <path d="M5.123 7.58a.126.126 0 0 1-.158.027L1.581 5.685a.121.121 0 0 1-.045-.167L2.649 3.62a.125.125 0 0 1 .17-.045l1.195.68 1.269-2.161a.125.125 0 0 1 .168-.045l2.083 1.183c.059.034.08.108.046.166l-2.44 4.16a.114.114 0 0 1-.017.022z" fill="#494949"/>
    </g>
  </g>
</svg>